<?xml version="1.0" encoding="utf-8"?>
<!-- Generator: Adobe Illustrator 25.2.1, SVG Export Plug-In . SVG Version: 6.00 Build 0)  -->
<svg version="1.1" id="Capa_1" xmlns="http://www.w3.org/2000/svg" xmlns:xlink="http://www.w3.org/1999/xlink" x="0px" y="0px"
	 viewBox="0 0 374.6 117.5" style="enable-background:new 0 0 374.6 117.5;" xml:space="preserve">
<style type="text/css">
	.st0{fill:#354E42;}
</style>
<g id="Capa_2_1_">
	<g id="Capa_1-2">
		<path class="st0" d="M27,114.5c-0.4-0.3-0.8-0.4-1.3-0.5C26.1,114.2,26.6,114.3,27,114.5z"/>
		<path class="st0" d="M52.7,115.9h0.2l0.2-0.1L52.7,115.9z"/>
		<path class="st0" d="M54.4,115.4l-1,0.3l-0.3,0.1l0.7-0.1C54.1,115.6,54.4,115.5,54.4,115.4z"/>
		<path class="st0" d="M55.7,115.3c-0.4,0.1-0.8,0.2-1.2,0.3C54.9,115.6,55.3,115.5,55.7,115.3z"/>
		<path class="st0" d="M18.4,109.7l-0.5-0.3L18.4,109.7z"/>
		<path class="st0" d="M21.7,111.9h0.1C21.6,111.8,21.5,111.8,21.7,111.9z"/>
		<path class="st0" d="M51.4,116.6c0.2,0,0.6-0.1,1-0.2L51.4,116.6z"/>
		<path class="st0" d="M4.7,93.2l-0.4-0.5C4.8,93.6,4.6,93.2,4.7,93.2z"/>
		<path class="st0" d="M24.4,22.5l0.1-0.1C24.6,22.4,24.5,22.4,24.4,22.5z"/>
		<path class="st0" d="M84.7,65.2L84.7,65.2C84.7,65.1,84.7,65.1,84.7,65.2z"/>
		<path class="st0" d="M2.8,57.8L2.8,57.8C2.9,57.2,2.9,57.5,2.8,57.8z"/>
		<path class="st0" d="M75.6,101.9L75.6,101.9L75.6,101.9L75.6,101.9z"/>
		<path class="st0" d="M74.5,103.4c0.3-0.5,0.7-1,1.1-1.5l-0.6,0.2L74.5,103.4z"/>
		<path class="st0" d="M20,110.8l-0.3-0.2C19.8,110.6,19.9,110.7,20,110.8z"/>
		<path class="st0" d="M46,58.7L46,58.7C46,58.7,46,58.7,46,58.7z"/>
		<path class="st0" d="M44.6,55.3L44.6,55.3z"/>
		<path class="st0" d="M43.2,63.7L43.2,63.7C43.2,63.7,43.2,63.6,43.2,63.7z"/>
		<polygon class="st0" points="45.2,55.6 45.2,55.7 45.2,55.7 		"/>
		<path class="st0" d="M43.2,56.2L43.2,56.2L43.2,56.2L43.2,56.2C43.3,56.2,43.2,56.2,43.2,56.2z"/>
		<path class="st0" d="M41.7,60.5C41.7,60.5,41.7,60.4,41.7,60.5c-0.1,0.1-0.1,0.1-0.1,0.2c0.1,0,0.2-0.1,0.3-0.1h-0.1
			c0,0,0,0,0.1,0l0,0c0,0,0.1,0,0.1,0s0-0.1,0-0.2S41.8,60.5,41.7,60.5z M41.7,60.6L41.7,60.6L41.7,60.6z"/>
		<polygon class="st0" points="42.4,60.6 42.4,60.6 42.4,60.6 		"/>
		<path class="st0" d="M43.8,55.9L43.8,55.9L43.8,55.9L43.8,55.9L43.8,55.9c0,0-0.1,0-0.1,0l0.1,0.2L43.8,55.9z"/>
		<path class="st0" d="M45.5,55.4"/>
		<path class="st0" d="M43.2,57.6L43.2,57.6L43.2,57.6z"/>
		<path class="st0" d="M44.5,55.6C44.5,55.6,44.5,55.6,44.5,55.6L44.5,55.6c0.1,0,0.1,0.1,0.2,0s0-0.1,0-0.2S44.6,55.6,44.5,55.6
			C44.4,55.6,44.5,55.5,44.5,55.6c-0.1,0-0.1,0.1-0.1,0.2l0.3-0.1C44.7,55.7,44.5,55.6,44.5,55.6z M44.4,55.6L44.4,55.6L44.4,55.6
			C44.4,55.6,44.4,55.6,44.4,55.6L44.4,55.6z"/>
		<path class="st0" d="M43.3,56.7L43.3,56.7h-0.1H43.3z"/>
		<path class="st0" d="M44,55.7L44,55.7L44,55.7L44,55.7z"/>
		<path class="st0" d="M43.6,56.2L43.5,56v0.1l0,0C43.5,56.1,43.5,56.2,43.6,56.2L43.6,56.2z"/>
		<path class="st0" d="M41.9,60.3"/>
		<path class="st0" d="M43.2,57.6L43.2,57.6L43.2,57.6L43.2,57.6L43.2,57.6L43.2,57.6z"/>
		<path class="st0" d="M38.3,67.2l-0.1,0.2L38,67.6L38.3,67.2z"/>
		<path class="st0" d="M42.7,60.4L42.7,60.4z"/>
		<path class="st0" d="M40.9,60.8c0,0.1,0.1,0.1,0.1,0.1l0,0L40.9,60.8l0.2,0.1l0,0l0,0C41,60.9,41,60.8,40.9,60.8z"/>
		<polygon class="st0" points="42.7,60.4 42.7,60.4 42.7,60.4 		"/>
		<polygon class="st0" points="45.5,55.4 45.5,55.4 45.5,55.4 		"/>
		<path class="st0" d="M37.2,68.8c-0.2,0.4-0.4,0.8-0.6,1.2C36.8,69.6,37,69.2,37.2,68.8z"/>
		<path class="st0" d="M35.5,92.8c0-0.5,0-1,0-1.5C35.4,91.8,35.4,92.4,35.5,92.8z"/>
		<path class="st0" d="M37.4,68.8c0.2-0.4,0.3-0.7,0.5-1l0.1-0.3c-0.1,0.2-0.3,0.5-0.5,0.7C37.4,68.5,37.4,68.8,37.4,68.8z"/>
		<path class="st0" d="M40.5,61.7L40.5,61.7h-0.1H40.5z"/>
		<path class="st0" d="M40.7,61L40.7,61c0,0,0,0.1,0.1,0.2v-0.1L40.7,61L40.7,61z"/>
		<path class="st0" d="M40.4,62.5L40.4,62.5L40.4,62.5L40.4,62.5L40.4,62.5L40.4,62.5z"/>
		<path class="st0" d="M40.5,61.1L40.5,61.1L40.5,61.1L40.5,61.1C40.5,61.1,40.5,61.1,40.5,61.1z"/>
		<path class="st0" d="M42.7,60.4L42.7,60.4C42.7,60.4,42.7,60.4,42.7,60.4z"/>
		<path class="st0" d="M45.5,55.4L45.5,55.4C45.5,55.4,45.5,55.4,45.5,55.4z"/>
		<path class="st0" d="M40.5,62.5L40.5,62.5z"/>
		<path class="st0" d="M41.3,60.8L41.3,60.8L41.3,60.8C41.3,60.8,41.3,60.7,41.3,60.8z"/>
		<path class="st0" d="M73,88.8c0.1-0.2,0.1-0.4,0.2-0.6v-0.3l-0.3,0.4C72.9,88.6,72.9,88.8,73,88.8z"/>
		<path class="st0" d="M73.3,87.7l-0.1,0.1l-0.1,0.3C73.2,87.9,73.3,87.8,73.3,87.7z"/>
		<path class="st0" d="M73,70.6c0-0.4,0-0.6-0.3-0.9C72.8,70,72.9,70.3,73,70.6z"/>
		<path class="st0" d="M72.7,88.7c-0.1,0.2-0.2,0.5-0.3,0.7C72.5,89.2,72.6,89,72.7,88.7z"/>
		<path class="st0" d="M85.8,75c-0.2,0.5-0.4,0.7-0.7,0.7c0.1-0.6,0.1-1.2,0.1-1.8l0.1,0.1v-0.3h-0.1c0-0.6,0-1.2,0-1.8
			c0.2-0.2,0.3,1.4,0.4,0.7c-0.1-0.2-0.1-0.5-0.1-0.7c0-0.6,0.2,0.2,0.1-1c-0.2-0.2-0.1-2.4-0.2-0.6c-0.1-1.2,0-1.2-0.2-2.6
			c0,0.3-0.2-0.3-0.4-1.1c-0.1-0.5-0.1-1-0.2-1.5v0c-0.2-1.9-0.6-3.9-1.2-5.8c0-0.2-0.3-1.2-0.1-0.8c-0.2-0.4-0.4-0.8-0.5-1.2
			c-0.3-1.3,0.5,1.5,0.4,0.4c-0.2-0.3-0.3-0.6-0.4-1c-0.2-0.5-0.5-1.1-0.7-1.5c0.1,0.4,0.2,0.9,0.4,1.3c0.2,0.6,0.5,1.3,0.7,1.7
			c-0.1,0-0.2-0.1-0.3-0.4c-0.8-2.4-1.8-4.7-2.8-7c-0.7-1.6-2.4-4.9-3.4-6.8c-0.2-0.2-0.4-0.6-0.5-0.7c-0.7-1.2-1.4-2.4-2.1-3.7
			l-0.4-0.7l0.2,0.3c-0.8-1.2-1.5-2.4-2.2-3.6l0,0L71,34.7l-0.2-0.3c0.1,0.1,0.2,0.3,0.1,0c0,0-0.2-0.1-0.3-0.3
			c-0.4-0.6-0.7-1.1-1.1-1.7l0,0l0,0C62.3,21.3,54.3,10.7,45.7,0.6c0,0-0.7-1.3-2.1,0.1l-1.9,2.1c-0.4,0.3-0.8,0.6-0.9,0.5
			c-0.7,1.1-2.6,2.4-3.8,4.3c-0.4,0.3,0.2-0.4,0-0.2c-0.4,0.7-1,1.4-1.5,1.9l0.1-0.1c-2.3,2.7-3.3,3.8-5.9,6.8l0.2-0.2
			c-0.5,0.7-0.7,0.8-1,1.1c-0.5,0.9,1.5-1.9,1.1-1c-0.9,0.7-3.8,4.6-4.4,5.1c-0.8,1,0.4-0.2-0.5,0.8L25,22l-0.1,0.3
			c-0.5,0.7-0.9,0.9-1,0.9c0.1-0.2,0.3-0.5,0.5-0.7c-0.8,0.8-1.9,2.5-2.1,2.8l0.8-1c-2.1,2.9-4.8,6.3-6.6,9.2l0.2-0.2
			c-1.4,2.2-1.3,1.7-2.8,4.1l0.1-0.1c-0.3,0.5-0.7,1.2-1.1,1.8c0.3-0.7-0.9,1.1-0.4,0.2c-0.6,0.9-1.1,1.9-1.5,2.9l-0.3,0.3
			c-0.3,0.7-0.6,1.3-1,1.9c0.5-1-0.6,0.7,0-0.5c-1.8,2.5-2.1,4-3,5C6.1,50.5,8,47,7.6,47.7c0.4-0.5-0.4,1.1-0.9,1.9
			C6,50.7,5.3,51.8,4.6,53c0.1-0.2,0.1-0.2,0.2-0.5c-0.5,0.8-0.7,1.7-1.2,2.6c-0.1,0.6-0.6,1.3-0.5,1.6c0.3-0.7,0.6-1.4,0.9-2.1
			c-0.2,0.6-0.4,1.2-0.7,1.9c-0.2,0.8-0.5,1.6-0.8,2.4c0.1-0.4,0.2-0.8,0.3-1.2c-0.3,0.5-0.3,1.1-0.6,1.7c0.1-0.5,0.2-1,0.4-1.5
			l0.8-2.3c-0.4,0.5-0.8,2.5-0.8,1.7c0,1-0.9,2.2-1.1,4l-0.1-0.1c0,0.3-0.1,0.8-0.2,1.3l0.1-0.9c-0.3,1.3-0.7,2.5-0.8,3.8
			c0.4-2.7,0.2-0.6,0.5-1.7c-0.3,3.2-0.6,2-0.9,5.1c0.1-0.6,0.2-1.2,0.2-0.6S0.1,69.8,0,70.3c-0.1,2.5,0.2-0.4,0.2,0.7
			c-0.1,0.8-0.1,1.5,0.1,2.3H0.2c0,2.8,0.3,0.7,0.3,3.3l-0.2-1.1c0,0.4,0.1,0.9,0.1,1.3l-0.2-0.3c0.2,1.4,0.3,1.9,0.4,3.3
			c0-0.3,0.2,0.2,0.5,1.4c0.1,0.8-0.2-0.4,0.2,1.3c-0.2-0.5-0.4-1-0.4-1.6c-0.1-0.1-0.1-0.4-0.2-0.4c0.1,1,0.3,1.9,0.6,2.9
			c-0.1-0.2-0.1-0.5-0.1-0.7c0.2,0.8,0.5,1.6,0.8,2.4c0.1,0.4-0.1,0.1-0.2-0.2l0.5,1.6c-0.2-0.2-0.3-0.1-0.6-1.1
			c0.2,0.8,0.6,1.5,0.8,2.3c0,0.2,0.3,1.2,0.2,0.9C3,89.3,3.3,90,3.6,90.8C3.8,91.2,4,91.6,4.2,92s0.4,0.8,0.6,1.2
			c0.1,0.2,0.2,0.4,0.3,0.6c0.3,0.8,0.7,1.5,1.1,2.2c0.4,0.8,0.9,1.6,1.4,2.3l0.5,1.1c0.9,1.2-0.7-1.4,0.9,0.7
			c1.1,1.5,0.3,0.7,0.6,1.2c0.3,0.3,0.8,0.8,1.3,1.3c0.2,0.3,0.5,0.6,0.8,0.9s0.6,0.6,0.8,0.9c-0.4-0.3-0.7-0.7-1.1-1.1
			c0.2,0.4,0.5,0.7,0.8,1c-1.2-1-1.8-2-1.2-0.9c0.7,0.5,1.4,1.1,1.9,1.8c0.6,0.7,1.2,1.2,2,1.7l0.6,0.6l-0.4-0.3
			c1.1,1.2,1.1,0.6,2.7,2c0.6,0.4,1,0.8,0.5,0.5l1.4,0.9c0.2,0.2,0.3,0.2,0.2,0.2c0.6,0.4,1.2,0.7,1.8,1.1l0,0
			c0.3,0.2,1.1,0.5,1.5,0.6c0.5,0.3-0.3-0.1-0.2,0l1.3,0.6c0.5,0.3-0.6-0.1-1.5-0.6c0.3,0.3,0.8,0.6,1.2,0.8
			c0.4,0.2,1.1,0.4,2.3,1.1l-1.2-0.5c1,0.6,2,1.1,3,1.5c-0.3-0.1-2.7-1.4-1.2-0.9c0.5,0.3,1.1,0.5,1.7,0.6c0.5,0.3,1.1,0.6,1.7,0.7
			l-0.1,0.1c0.5,0.1,1.1,0.2,1.6,0.2c0.6,0.1,1.1,0.3,1.6,0.7c1.9,0.4-1.3-0.5,1,0c1.5,0.4,3.1,0.6,4.6,0.6c1.1,0.2-0.2,0.1,0.2,0.2
			l1-0.1c0.2,0,0.2,0,0.1,0.1c0.8,0,0.1-0.2,1.4-0.2c0.4-0.2,2.7,0.3,4.3,0c0.4,0-0.2,0.1-0.1,0.2c1.3-0.1,2.5-0.4,3.7-0.7
			c0.5,0,1-0.1,1.5-0.2c-1.1,0.1,0.3-0.3,1.5-0.7h-0.2l0.4-0.1l-0.2,0.1h0.2l0.3-0.1l1-0.3c0,0-0.2,0.2-0.5,0.3l-0.7,0.1
			c-0.5,0.2-0.9,0.4-0.8,0.5c0.2-0.1,0.4-0.1,0.7-0.2c-0.1,0-0.2,0.1-0.1,0.1c0.2,0,0.4-0.1,0.6-0.2l0.5,0.1l0-0.2
			c0.9-0.2,1.8-0.4,2.6-0.7s1.7-0.8,2.6-1.3c0.5-0.2,0.9-0.5,1.5-0.8l1.8-1c-0.6,0.5,0,0.3,0,0.4c-0.5,0.2-1,0.4-1.5,0.8
			c-0.6,0.3-1.3,0.7-2,1c0.8-0.3,0.6-0.2,0.5-0.1c0.8-0.4,1.7-0.8,2.5-1.3c0,0.2,0.6-0.2,1.3-0.5c-0.3,0,0.2-0.2,0.8-0.7
			c0.6-0.4,1.4-0.9,1.9-1.2c0.1,0-0.1,0.2-1.3,1c1.4-0.6,1.5-1.3,2.8-2.1c-0.2,0.1-0.4,0.3-0.5,0.4c0.3-0.3,0.9-0.7,1.3-1
			s0.7-0.5,0.6-0.3l-0.3,0.2l1.6-1.3c0.6-0.5,1.2-1.1,1.7-1.6c0.7-0.6,1.4-1.4,1.9-2.2c0,0.2,0,0.4-0.1,0.5c0.4-0.6,0.7-1.2,1.1-1.8
			c0.1-0.2,0.2-0.4,0.4-0.7s0.5-0.6,0.8-1c0.3,0,0.6-0.1-0.1,1c0.5-0.6,1-1.2,1.4-1.8c-0.2,0.3-0.8,0.6-0.5,0.2
			c0.6-0.6,1.2-1.3,1.7-2c-0.3,0.4-0.2-0.2,0.2-1c0,0.1,0.3,0.1,0.2,0.4c0.3-0.7,0.6-1.3,0.8-2c-0.2,0.5,0.2,0.2,0.5-0.2
			c0.1-0.3,0.2-0.6,0.4-0.8c0.2-0.5,0.5-1.1,0.7-1.4l-0.4,0.8c1.1-2.2,0.6-2.4,1.5-4.6c0,0.3,0.1,0.8,0.6-0.3c0-0.3,0.1-1,0.2-2
			c0.3-0.8,0.5-1.7,0.8-2.5c-0.1,1.1-0.3,2.2-0.5,3.3c0.3-0.5,0.5-1,0.6-1.5c0.2-0.4-0.1,0.8-0.2,1.1c0.4-1,0.7-2,1-3.1
			c-0.2,0.1,0.4-2.4,0.2-2.3c-0.2,1.1-0.4,2.3-0.7,3.4c-0.2,0.1,0.1-2.1,0.6-4.3c0.2-0.6,0.2,0.5,0.3,0.4c0-0.3,0.3-2.1,0.3-2.3
			c0,0.3,0,0.7-0.1,1c0.3-1.2,0.1-2.1,0.4-3.6C85.6,76.2,85.7,75.6,85.8,75z M25.8,113.9c0.5,0.1,0.9,0.3,1.3,0.5
			C26.6,114.3,26.1,114.1,25.8,113.9L25.8,113.9z M32.8,109.8c-0.1-0.2,0.5,0.2,1.7,0.4C33.9,110.2,33.3,110,32.8,109.8L32.8,109.8z
			 M40,70.8c-0.1,0.1,0.1-0.5-0.1-0.1c-0.5,1.7-1.8,3.9-1.8,4.4c-0.4,1.4,0,0.6-0.3,1.5c0,0,0-0.1-0.1,0.1l-0.2,1.1
			c-0.2,0.4,0.2-1-0.2,0.2c-0.5,2-0.7,3.2-1,4.9c-0.4,2.4,0.4-1,0.1,1c-0.3,0.6-0.5,1.2-0.5,1.8c0,0.6,0,1.2,0,1.8l-0.2-0.1
			c-0.1,1.1-0.1,2-0.2,2c0,0.9,0,1.5,0,2c0.1,1.6,0.3-1.2,0.5-1.6c-0.2,1.6-0.1,2.7-0.3,3.6L35.6,92c-0.1,3.1,0.3,2.9,0.1,4.3
			c-0.1-1-0.2-2.3-0.3-1.7s0.1,1,0.2,1.5c0,0.2-0.1-0.9-0.1-0.2c0.1,0.4,0.3,1.3,0.4,1.7l0.1,0.1c0,0.2,0,0.1-0.1-0.1l0,0
			c0.1,0.9,0.3,1.8,0.5,2.7c-0.1-0.5-0.2-0.6-0.1-0.1s0.3,1.2,0.5,1.7l0.2,0.6l-0.2-0.6c-0.2-0.5-0.1,0,0.1,0.8
			c0.6,2.2,0.8,1.7,1.2,3.4c-0.1-0.2-0.1-0.3-0.2-0.5c0.1,0.3,0.1,0.6,0.2,0.9c0.1,0,0.2,0.3,0.5,0.8c0.1,0.2,0.2,0.5,0.4,0.8
			l0.7,1.7c1.2,1.7-0.9,0.9-1.7,0.9l-0.7-0.1H37h-0.2c-0.2,0-0.3,0-0.3,0.1c-0.7-0.2-0.7-0.2-0.3-0.2l2.9,0.2l-2.3-0.4l1.2,0.2
			l1.4,0.2c-0.8-0.1-1.5-0.2-2.2-0.3s-0.9-0.1-1.3-0.1c-0.8-0.1-1.5-0.2-2-0.3c-0.7-0.2,0.6-0.1-1.4-0.6c-2.8-0.8,0.5,0.4-1.2-0.1
			c-0.4-0.2-0.8-0.4-1.1-0.6c-1.8-0.6-3.6-1.4-5.2-2.5c-0.2-0.1-0.4-0.2-0.7-0.3h0.1h-0.1c-0.1,0,0.3,0.3-0.7-0.3
			c0.2,0.1,0.4,0.2,0.7,0.3h0.1c-1.6-1-3.2-2.1-4.6-3.3c0.3,0.2-0.6-0.7-0.7-0.8c-0.7-0.6-1.3-1.2-2-1.9c0.9,0.9,0.9,0.7,1.1,0.8
			c-0.6-0.6-0.9-0.9-1.3-1.3c0.3,0.2,0.5,0.5,0.3,0.1c-0.6-0.7-1.3-1.4-1.9-2.1c0.1,0.2,0.3,0.4,0.4,0.6l-0.9-1.2
			c-0.3-0.5-0.6-1-0.9-1.5c0.1,0,0.3,0.3,0.4,0.4c0.2,0.6,0.6,1,1.1,1.4c-1.2-1.6-0.3-0.4-0.7-1.2c-0.8-1.2-1.1-1.6-1-1.2
			c-0.8-1.4-1-1.8-1.8-3.2l0.3,0.2c-0.2-0.4-0.4-0.9-0.6-1.3l0.6,1c-1-2.6-0.5-0.3-1.6-3.3l0.1-0.1c-0.4-0.8-0.7-1.6-0.9-2.4
			c-0.4-1.1,0.3,2-0.4-0.7c-0.1-0.5-0.2-1.5-0.4-2.3s0,0.7,0.1,1.2c-0.3-1.1-0.4-2.2-0.4-3.3c0-1,0-2-0.2-3c0,1.3-0.4-1-0.1,2
			c-0.1-0.7-0.2-1.4-0.1-2.1c0-0.7,0-1.4-0.1-2.2l0.2,1c0-0.5-0.1-1.1-0.1-1.4L8.3,75c-0.1-0.8-0.1-1.7,0-2.5c0.1-0.7,0.1-1.3,0.1-2
			c0.1,0.8,0.1-1.4,0.4-2.1c-0.1,1.5-0.5,4.3-0.3,4.5c0.1-0.7,0.1-1.3,0.2-2c0-0.4,0-0.7,0-0.1v0.1c0,0.5,0,1.2,0,1.3
			c0.3-2.3,0.2-3.6,0.4-5c-0.1,0.8-0.2,1.6-0.3,2.5c-0.2-0.2,0.1-1.1,0.1-1.8c0.3-1.2,0.3-2.2,0.6-3.2l-0.1,0.6
			c0.2-0.9,0.5-1.9,0.8-2.8c0.2-0.6,0.4-1,0.6-1.5c0.3-1,0.8-2.9,0.5-2.3c0.2-0.8-1,3.5-0.8,1.9c0.7-1.4,0.8-3.1,2.3-6.1
			c-0.5,1.4,0.5-0.7,0.1,0.5c0.3-0.7,0.6-1.5,0.8-2.2l0.3-0.4c0.3-1.2,0.7-2.3,1.3-3.4c-0.4,1,0.7-1.1,0.4-0.3
			c0.4-0.8,0.8-1.5,1-2.2v0.1c0.7-1.4,1.1-2,1.4-2.5s0.6-1,1.3-2.3l-0.2,0.2c2.1-3.6,4.4-7.2,6.9-10.5l-1,1c0.3-0.3,1.5-2.2,2.3-3.1
			c0.1-0.1,0.1-0.2,0.1-0.1l-0.1,0.1c-0.1,0.2-0.4,0.6-0.5,0.7c0.1,0,0.4-0.3,1-1.1l0.1-0.4l0.3-0.3c0.9-1.1-0.4,0.2,0.5-0.9
			c0.7-0.5,3.9-4.8,4.9-5.6c0.5-0.9-1.8,2.1-1.2,1.1c0.3-0.3,0.5-0.5,1.1-1.1L33.3,22c2.9-3.3,4.1-4.4,6.7-7.3l-0.1,0.1
			c0.7-0.6,1.3-1.3,1.8-2c0.2-0.2-0.4,0.6,0,0.2c1.4-2,3.6-3.3,4.4-4.6c0,0.1,0.2,0,0.4-0.1c0.2-0.1,0.5-0.1,0.7-0.1
			c0.4,0,0.7,0.1,1,0.3c0.5,0.5,0.5,1.3,0,1.8c0,0,0,0,0,0C36.1,22.5,26.9,34,20.7,44.9l-0.2,0.3l-0.1,0.2c-0.3,0.5-0.6,1-0.9,1.5
			V47l-0.1,0.2c-0.3,0.6-0.6,1.2-1,1.8c-0.1,0.2-0.1,0.3-0.1,0.5c-0.2,0.3,0-0.1,0-0.1v0.1c-0.2,0.4-0.4,0.8-0.5,1.2c0,0,0,0-0.1,0
			c-0.8,1.7-1.5,3.3-2.2,5l0.3-0.6l0.2-0.4l-0.5,1.1c-0.6,1.4-1.1,2.8-1.5,4.2c0,0.2-0.1,0.7-0.2,1c-0.6,1.7-1.1,3.4-1.4,5.2
			c-0.3,1.3-0.4,2.6-0.6,3.3c-0.4,2.6-0.5,5.3-0.3,7.9c0.1,0.4,0.2,0.6,0.3,0.6c-0.1-0.5-0.2-1.3-0.2-2c0-0.5,0-1,0.1-1.5
			c0,1,0.1,2,0.3,3c-0.1,1.1-0.2-2-0.2-0.6c0,0.5,0.1,1,0.2,1.4c-0.1-0.5-0.1,0.7-0.1,0.9c0.2,2.2,0.6,4.3,1.2,6.4c0-0.1,0-0.1,0,0
			l0,0c0,0,0,0.1,0,0.1c0.2,0.5,0.3,1,0.5,1.6c0.4,0.8,0.8,1.4,0.8,1c0.3,0.9,0.7,1.8,1.1,2.6c-0.8-1.9,0.2,0.4,0.4,0.5
			c0.6,1.1,0.1,0.4,0.4,1c0.1,0.2,0.4,0.6,0.5,0.6s-0.1-0.3-0.3-0.7c0.3,0.5,0.3,0.7,0.3,0.7c0.2,0.7-0.8-0.7-0.8-0.5
			c0.3,0.6,0.7,1.2,1.1,1.7h0l0.2,0.3H17c0.4,0.5,0.8,1.1,1.1,1.6c0.2-0.1,0.2-0.5,0-1c0.1,0,0.6,1,1,1.5c0.8,1,1.7,1.9,2.7,2.8
			c-0.3-0.2-0.5-0.4-0.8-0.7c0.6,0.6,1.2,1.2,1.9,1.7c0,0.1-1-0.4-0.6,0c1.9,1.7,4.1,2.6,4,2.3c-1.1-0.6-2.2-1.3-3.2-2
			c0-0.2,2.2,1.5,2.2,1.2c0.9,0.6,1.9,1.2,2.9,1.8c-0.4-0.2-1.6-0.8-1.1-0.5c1.3,0.7,0.7,0.4,1.5,0.9c-0.8-0.3-2-0.7-3-1.2l-0.5-0.2
			c0.8,0.6,1.7,1.1,2.6,1.5c0.7,0.2,1.4,0.4,2.1,0.5c1.2,0.6,0.7,0.7,0.4,0.6c0.8,0.4,1.7,0.6,2.6,0.7c0.3,0,0.5,0.1,0.8,0.1H34
			l0.2,0.1c0,0,0-0.1,0-0.2v0.1c0,0,0,0.1,0,0l-0.3-0.1H34c0,0,0.2,0.1,0.1,0l-0.1-0.4l-0.1-0.4c-0.1-0.2-0.1-0.3-0.1-0.2
			c-0.1-0.5,0-1.1,0.2-0.5c-0.3-0.7-0.6-1.5-0.9-2.3c0.1,0.3,0.3,0.1,0.4,0.2c-0.2-0.9-0.6-1.6-0.5-0.9c-0.1-1-0.2-2-0.2-3
			c-0.1-0.6-0.2,0.1-0.2,0.5c-0.2-0.9-0.3-1.7-0.3-2.6v-0.1c0-0.7-0.1-1.3-0.3-2c0.2,0.4,0.4,0.9,0.5,1.3l-0.3,0.7v0.1
			c0.2,1.4,0.5,1.1,0.6,0.9c-0.1-0.5-0.1-1-0.2-1.4c-0.3-1-0.5-2-0.7-3c0,0.2,0.3,0.5,0.3,0.5C32,92.3,32,91.2,32,90.2
			c0-1.6,0.1-3.2,0.3-4.8v0.4c0,0.2,0.1-0.2,0.2-0.7s0.2-1.3,0.2-1.8c0,0.2,0,0.5-0.1,0.7c0.4-1.6,0-2.2,0.5-3.8
			c-0.3,1.5-0.3,1.8-0.2,1.8c0.1-1.3,0.9-4.1,0.5-3.6c0.3-0.8,0.4-1.5,0.5-1.4c0.2-1,0.5-2,0.8-3c0,0.2,0,0.4,0.3-0.4
			c-0.6,1.6-0.8,3.3-1.2,4.2c0.1,0.1,0.4-0.5,0.3,0.3c0.8-3.3,1.2-5.1,1.8-7.1c0.4-0.9,0.8-1.8,1.3-2.7V68l0.4-0.4
			c0.1-0.2,0.2-0.4,0.3-0.6c0-0.1,0,0,0,0.2c0.1-0.3,0.3-0.5,0.3-0.7s-0.1,0-0.2,0.1c0.2-0.3,0.2-0.3,0.2-0.1c0.1-0.1,0,0.5-0.2,1
			l0.2-0.2c0.1-0.4,0.3-0.7,0.5-1c0.2-0.2,0.5-0.4,0.8-0.5c0.2-0.1,0.4-0.1,0.4-0.1s-0.1-0.1-0.2-0.1h-0.4c-0.1,0-0.2,0.1-0.3,0.1
			h-0.1c-0.1,0-0.2,0.1-0.3,0.2l0,0c-0.1,0.1-0.2,0.1-0.2,0.2c-0.1,0.1-0.2,0.2-0.2,0.3c0.1-0.1,0.1-0.2,0.2-0.3
			c0,0,0.1-0.1,0.1-0.1l0,0c0.1-0.1,0.2-0.1,0.3-0.2h0.1c0.1,0,0.2-0.1,0.3-0.1h0.4c1,0.1,1.7,0.9,1.6,1.9c0,0.2,0,0.3-0.1,0.5
			l-0.3,0.7C40.6,69.2,40.4,69.7,40,70.8z M37.2,103.2l-0.1,0.3v-0.5L37.2,103.2z M36,88.3l-0.2,0.9c0-0.3,0-0.7,0.1-1L36,88.3z
			 M43.3,56.1c0.1,0,0-0.2,0.2-0.2l0,0c0,0,0.2,0,0.2-0.1l0,0c0,0,0.1-0.1,0.1-0.1l0,0c0.1,0,0.2-0.2,0.3-0.1s0.1,0,0.1-0.1l0,0
			c0,0,0.1,0,0.1-0.1l0,0c0,0,0,0,0.1,0h0.1c0,0,0,0-0.1,0l0,0c0.1,0.1,0.2-0.1,0.3-0.1l0,0h0.1l0,0c0,0,0.1,0,0.1,0h0.1
			c-0.1,0,0,0.1,0,0.1l0,0c0,0,0,0,0,0.1s0.1,0,0.1-0.1l0,0l0,0l0,0l0,0c0,0,0.1,0,0.1,0.2c0-0.1,0.1,0,0.1-0.1c0,0.1,0,0,0,0.1
			s-0.1,0-0.2,0.1v0.1c0,0.1-0.1,0-0.1,0s0,0,0,0v-0.1c-0.1,0-0.1,0-0.2,0.1s0,0,0,0.1l0,0l0,0H45h0.2c0-0.1,0.1-0.1,0.1-0.2
			s0,0.1,0.1,0.1s0-0.1,0-0.1c0,0,0.1,0,0.1-0.1l0,0c0,0,0,0,0.1,0c0,0,0,0.1,0,0.1h0.1l0,0l0,0l0,0c0,0,0,0,0.1,0s0,0,0,0l0,0l0,0
			l0,0l0,0l0,0l0,0h-0.1l0,0c0,0-0.1,0,0,0.1s0,0.1-0.1,0s0-0.1,0.1-0.1h-0.1l0,0h-0.1l0,0c0,0.1,0,0.2-0.1,0.3c0,0,0,0-0.1,0h0.1
			l0,0l0,0l0,0c0.4,0.1,0.8,0.4,1,0.8c0,0,0,0.1,0,0.1c0,0,0.1-0.1,0.2-0.1l0,0c0.1,0,0,0.1,0.1,0.1V57h0.1l0,0
			c-0.1,0.3,0.1,0.5-0.1,0.8l0,0c-0.1,0,0,0,0,0.1h-0.1c0,0,0.1,0,0.1,0s-0.2,0.2-0.1,0.3s-0.1,0-0.1,0c0.1,0,0,0.1,0.1,0.2
			c-0.1,0-0.1,0.1-0.2,0s0,0.1,0.1,0.1c0,0-0.1,0.1,0,0.2c0,0-0.2,0.2-0.3,0.2c0.1,0,0,0,0,0.1H46H46l0,0c0,0,0,0-0.1,0s0,0.1,0,0.1
			l0,0l0,0c0,0,0-0.1,0-0.1s0,0.1,0,0.1s0-0.1,0-0.1h-0.1l0.1,0.1c-0.2,0.1-0.4,0.1-0.5,0.2c0-0.1-0.1,0-0.1-0.1l0,0
			c0,0,0-0.1-0.1-0.1s0,0.1,0,0.1l-0.1,0.1c0,0.2-0.2,0-0.3,0.1l0,0c-0.1,0.1-0.2-0.1-0.2-0.1V59c-0.1,0.1-0.1,0.1-0.2,0s0,0,0,0
			s-0.1,0.1-0.2,0l0,0H44c0.1-0.2-0.2,0-0.2-0.2c0,0-0.1,0-0.2,0l0,0c-0.1,0.1-0.1-0.1-0.1-0.1s-0.1,0-0.1,0.1s-0.2-0.1-0.2-0.1
			s0-0.1,0.1-0.1s-0.1,0.1-0.1,0l0,0c0,0,0.1-0.2,0.1-0.2l0,0c-0.1,0,0.1-0.2-0.1-0.1l0,0c0-0.1,0,0,0-0.2l0,0c0,0,0-0.1-0.1-0.1
			l0,0c0,0,0-0.1,0-0.1l0,0c0,0-0.2-0.1-0.2-0.2s0.1,0,0.1,0s-0.1,0,0-0.1s-0.2,0-0.2-0.1s0,0,0,0l0,0c0,0,0,0,0.1,0
			c-0.1,0,0-0.1-0.1-0.2s0,0,0.1,0s0.1-0.1,0-0.1c0.1-0.2,0-0.4,0.1-0.4s0-0.1,0-0.1h0c-0.1-0.1,0-0.1-0.1-0.2c0,0.1,0.1,0,0.1,0
			l-0.1-0.1h0.1c0,0,0,0,0-0.1s0,0,0,0s0-0.2-0.1-0.2s0-0.1,0.1,0s0,0,0,0s-0.1,0-0.1,0l0,0h-0.1c0,0,0,0,0.1,0l0,0
			C43.2,56.3,43.3,56.1,43.3,56.1L43.3,56.1z M44.8,55.2C44.8,55.2,44.8,55.3,44.8,55.2S44.8,55.2,44.8,55.2L44.8,55.2z M44.8,55.2
			L44.8,55.2z M45,55.2L45,55.2L45,55.2L45,55.2L45,55.2z M45.2,55.5L45.2,55.5C45.2,55.5,45.2,55.5,45.2,55.5L45.2,55.5z
			 M45.2,55.5L45.2,55.5C45.2,55.5,45.2,55.5,45.2,55.5z M45.2,55.6L45.2,55.6L45.2,55.6L45.2,55.6z M45,55.6L45,55.6L45,55.6
			C45,55.6,44.9,55.5,45,55.6L45,55.6z M45.3,55.3L45.3,55.3L45.3,55.3L45.3,55.3z M45.4,55.3L45.4,55.3L45.4,55.3L45.4,55.3z
			 M46,55.7C46,55.7,46,55.8,46,55.7C45.8,55.8,45.9,55.7,46,55.7L46,55.7z M46,55.6L46,55.6C46,55.5,46,55.6,46,55.6z M45.9,55.7
			L45.9,55.7L45.9,55.7L45.9,55.7z M45.9,55.5L45.9,55.5C45.9,55.5,45.9,55.5,45.9,55.5L45.9,55.5L45.9,55.5L45.9,55.5z M45.9,55.4
			L45.9,55.4L45.9,55.4L45.9,55.4z M45.9,55.7c0,0,0,0.1,0,0.1l0,0v0l0,0l0,0c-0.1,0-0.1-0.1-0.1-0.2L45.9,55.7z M45.8,55.4
			C45.8,55.4,45.8,55.3,45.8,55.4C45.8,55.3,45.8,55.3,45.8,55.4c0,0-0.1,0-0.1,0L45.8,55.4z M45.8,55.6
			C45.8,55.6,45.8,55.6,45.8,55.6L45.8,55.6L45.8,55.6z M46.4,56.1L46.4,56.1L46.4,56.1c-0.1,0-0.2,0-0.1-0.1s0,0.1,0,0.1L46.4,56.1
			z M46.3,55.8L46.3,55.8L46.3,55.8c-0.2,0-0.2,0-0.1,0L46.3,55.8z M46.5,56.2L46.5,56.2z M46.3,55.7L46.3,55.7
			C46.3,55.7,46.3,55.6,46.3,55.7c0.1,0-0.1,0-0.1,0L46.3,55.7z M46.2,55.8C46.3,55.8,46.2,55.8,46.2,55.8c0-0.1-0.1,0-0.1,0
			L46.2,55.8z M46.2,56.1L46.2,56.1L46.2,56.1c0,0-0.1,0-0.1,0L46.2,56.1z M46.2,55.7C46.2,55.7,46.2,55.7,46.2,55.7
			S46.2,55.7,46.2,55.7z M46.2,55.7L46.2,55.7L46.2,55.7z M46.7,56.4C46.7,56.4,46.7,56.4,46.7,56.4c0.1,0-0.2,0.1-0.2,0L46.7,56.4z
			 M46.8,56.4L46.8,56.4L46.8,56.4z M46.7,56.4L46.7,56.4L46.7,56.4L46.7,56.4z M43.9,62.6c0,0.1-0.2,0.2-0.1,0.3s-0.1,0-0.1,0
			c0.1,0,0,0.1,0.1,0.1c-0.1,0-0.1,0.1-0.2,0s0,0.1,0.1,0.1c0,0-0.1,0.1-0.1,0.2c0,0-0.2,0.2-0.3,0.2c0.1,0,0,0,0,0.1h0.1l-0.1,0
			l0,0c0,0,0,0-0.1,0s0,0.1,0,0.1l0,0l0,0c0,0,0-0.1-0.1-0.1s0,0.1,0,0.1s0-0.1,0-0.1h0l0.1,0.1c-0.2,0.1-0.4,0.1-0.5,0.2
			c0-0.1-0.1,0-0.1-0.1l0,0c0,0,0-0.1-0.1-0.1s0,0.1,0,0.1l-0.1,0.1c0,0.2-0.2,0-0.3,0.1l0,0c-0.1,0.1-0.2-0.1-0.2,0v-0.1
			c-0.1,0.1-0.1,0.1-0.2,0s0,0,0,0s-0.1,0.1-0.1,0l0,0h-0.1c0.1-0.2-0.2,0-0.2-0.2c0,0-0.1,0-0.2,0s0,0,0,0s-0.1-0.1-0.1-0.1
			s-0.1,0-0.1,0.1s-0.2-0.1-0.2-0.1s0-0.1,0.1-0.1s-0.1,0.1-0.1,0l0,0c0,0,0.1-0.2,0.1-0.2l0,0c-0.1,0,0.1-0.2-0.1-0.1h0
			c0-0.1,0,0,0-0.2l0,0c0,0,0-0.1-0.1-0.1l0,0v-0.1l0,0c-0.1,0-0.1-0.1-0.1-0.2s0,0,0.1,0s-0.1,0,0-0.1s-0.2,0-0.2,0s0,0,0,0
			s0,0,0,0s0,0,0.1,0s0-0.1-0.1-0.2s0,0,0.1,0c-0.1,0,0.1-0.1-0.1-0.1c0.1-0.1,0-0.4,0.2-0.4s0-0.1,0-0.1h0c-0.1-0.1,0-0.1-0.1-0.2
			c0,0,0.1,0,0.1,0l-0.1-0.1h0.1c0,0,0,0,0-0.1s0,0,0,0s0-0.2-0.1-0.2s0-0.1,0.1,0l0,0c0,0-0.1,0-0.1,0l0,0l0,0c-0.1,0,0,0,0.1,0
			l0,0l0,0c0,0,0-0.2,0.2-0.2l0,0c0,0,0.2,0,0.2-0.1l0,0c0-0.1,0-0.1,0.1-0.1v-0.1c0.1,0,0.2-0.2,0.3-0.1c0-0.1,0.1,0,0.1-0.1v0
			c0,0,0.1,0,0.1-0.1l0,0c0,0,0,0,0.1,0c0,0,0.1,0,0.1,0c0,0,0,0-0.1,0c0,0,0,0,0,0c0.1,0.1,0.2-0.1,0.3-0.1l0,0H42l0,0
			c0,0,0.1,0,0.1,0H42c-0.1,0,0,0.1,0,0.1l0,0c0,0,0,0,0,0.1s0.1,0,0.1-0.1l0,0l0,0l0,0c0,0,0,0,0,0s0.1,0,0.1,0.2
			c0-0.1,0.1,0,0.1-0.1c0,0.1,0,0,0,0.1s-0.1,0-0.2,0.1v0.1c0,0.1-0.1,0-0.1,0s0,0,0,0v-0.1c-0.1,0-0.1,0-0.2,0.1s0,0,0,0.1l0,0l0,0
			h0.2h0.2c0-0.1,0.1-0.1,0.1-0.1s0,0.1,0.1,0.1s0-0.1,0-0.1s0.1,0,0.1-0.1l0,0l0,0c0,0,0,0.1,0,0.1h0.1l0,0l0,0l0,0c0,0,0,0,0.1,0
			l0,0l0,0l0,0l0,0l0,0l0,0l0,0h-0.1h0c0,0.1-0.1,0.1,0,0.1s0,0-0.1,0s0-0.1,0.1-0.1h-0.1l0,0h-0.1l0,0c0,0.1,0,0.3-0.1,0.3
			s0,0-0.1,0h0.1l0,0l0,0l0,0c0.4,0.1,0.8,0.4,1,0.9c0,0,0,0.1,0,0.1c0,0,0.1-0.1,0.2-0.1l0,0c0.1,0,0,0.1,0.1,0.1V62h0.1
			c0,0,0,0,0.1,0c-0.1,0.3,0.1,0.5-0.1,0.8c0,0,0,0,0.1,0s0,0,0,0.1h-0.1C43.7,62.9,43.9,62.6,43.9,62.6z M42,60.2
			C42,60.2,42,60.3,42,60.2S42,60.1,42,60.2z M42,60.2L42,60.2z M42.2,60.2L42.2,60.2L42.2,60.2C42.2,60.2,42.3,60.2,42.2,60.2
			L42.2,60.2z M42.3,60.5L42.3,60.5C42.3,60.5,42.4,60.4,42.3,60.5L42.3,60.5z M42.3,60.5L42.3,60.5C42.3,60.5,42.4,60.5,42.3,60.5z
			 M42.3,60.5L42.3,60.5L42.3,60.5L42.3,60.5z M42.1,60.5L42.1,60.5L42.1,60.5C42.1,60.5,42.1,60.5,42.1,60.5L42.1,60.5z M42.4,60.3
			L42.4,60.3L42.4,60.3L42.4,60.3z M42.5,60.3L42.5,60.3L42.5,60.3L42.5,60.3z M43.1,60.7C43.1,60.7,43.1,60.7,43.1,60.7
			C43,60.8,43.1,60.7,43.1,60.7L43.1,60.7z M43.1,60.6C43.1,60.5,43.1,60.5,43.1,60.6C43.1,60.5,43.1,60.5,43.1,60.6z M43,60.6
			L43,60.6L43,60.6L43,60.6L43,60.6C43.1,60.6,43,60.6,43,60.6L43,60.6z M43,60.5L43,60.5C43,60.5,43,60.5,43,60.5L43,60.5L43,60.5
			L43,60.5z M43,60.4L43,60.4L43,60.4L43,60.4z M43,60.7c0,0,0,0.1,0,0.1l0,0c0,0,0,0,0,0.1s0,0,0,0l0,0C43,60.8,43,60.7,43,60.7
			L43,60.7z M43,60.4C43,60.4,43,60.3,43,60.4C42.9,60.3,43,60.3,43,60.4C43,60.3,43,60.3,43,60.4L43,60.4z M42.9,60.6
			C42.9,60.6,42.9,60.6,42.9,60.6L42.9,60.6L42.9,60.6z M43.6,61.1L43.6,61.1L43.6,61.1c-0.1-0.1-0.2,0-0.2-0.1S43.5,61,43.6,61.1
			L43.6,61.1z M43.5,60.7L43.5,60.7L43.5,60.7C43.4,60.7,43.4,60.8,43.5,60.7L43.5,60.7z M43.6,61.2L43.6,61.2z M43.5,60.7
			L43.5,60.7C43.5,60.6,43.5,60.6,43.5,60.7C43.6,60.7,43.4,60.7,43.5,60.7L43.5,60.7z M43.4,60.8C43.4,60.8,43.4,60.8,43.4,60.8
			C43.4,60.7,43.4,60.8,43.4,60.8L43.4,60.8z M43.4,61.1L43.4,61.1L43.4,61.1C43.4,61.1,43.3,61.1,43.4,61.1L43.4,61.1z M43.4,60.7
			C43.4,60.7,43.3,60.7,43.4,60.7S43.4,60.7,43.4,60.7z M43.3,60.8L43.3,60.8z M43.8,61.4C43.8,61.4,43.8,61.4,43.8,61.4
			C44,61.4,43.8,61.4,43.8,61.4L43.8,61.4z M43.9,61.4L43.9,61.4L43.9,61.4z M43.8,61.4L43.8,61.4L43.8,61.4L43.8,61.4z M30.8,104.9
			c1.4,0.6,0.3,0,1.9,0.6c0.4,0.3-0.1,0.1-1.1-0.2l-0.5-0.2l0.5,0.2C32,105.4,30.5,104.8,30.8,104.9L30.8,104.9z M11.8,69.1v0.7
			l-0.1-0.1C11.8,69.5,11.9,69.3,11.8,69.1L11.8,69.1z M11.6,73.7c-0.1,1.9-0.1-0.1-0.1-0.3C11.6,72,11.6,73.5,11.6,73.7L11.6,73.7z
			 M50,110.9c-1.1,0.2,0.1-0.1,0.2-0.1C51.1,110.6,50.2,110.8,50,110.9L50,110.9z M52.3,110.3v-0.2c0.1,0,0.3,0,0.4,0L52.3,110.3z
			 M54.5,115.7c0.4-0.1,0.8-0.2,1.2-0.3C55.3,115.5,54.9,115.6,54.5,115.7L54.5,115.7z M77.2,76.7c0,0.7,0.1,1.3,0.1,2
			c0,9.6-4.3,18.8-11.8,24.9l0,0l0,0c-0.4,0.3-0.8,0.6-1.2,0.9c0,0-0.1,0.1-0.1,0.1c-0.1,0.1-0.1,0,0-0.1c-0.1,0.1-0.2,0.1-0.3,0.2
			l-0.4,0.3l0,0c-0.8,0.5-1.6,1.1-2.4,1.5l0.2-0.1l-0.7,0.4l0,0c-0.8,0.4-1.6,0.8-2.4,1.2c-0.2,0.1-0.3,0.2-0.5,0.3
			c-0.9,0.2-2,0.7-3.1,1.1l-1,0.2c-1.9,0.5-3.9,0.8-5.8,1c-0.2,0.1-0.3,0.2-0.3,0.2c0.3-0.1,0.8-0.1,1.2-0.2
			c0.3-0.1,0.6-0.1,0.9-0.1l-1.1,0.3c-0.2,0-0.5,0.1-0.7,0.2c-0.7-0.2,1.2-0.1,0.3-0.2c-0.3,0-0.6,0.1-0.9,0.1
			c0.3-0.1-0.4-0.1-0.6-0.2c-1.3,0.1-2.7,0-4-0.1c0,0,0.1,0,0,0l0,0l0,0h-0.2c-0.1-0.2-0.2-0.5-0.3-0.8l-0.2-0.3
			c-0.2-0.3-0.4-0.6-0.4-0.4c-0.4-0.9-0.4-1.1-0.6-1.5c0.2,0,0.3,0,0.5,0l-0.7-0.1c0,0.1,0,0,0,0c0.2,0,1,0.2,1.1,0
			c1.2,0.1,0.4,0.1,1,0.2c0.2,0,0.4,0,0.5-0.1h-0.2l-0.4-0.1c0.2,0,0.3,0,0.5,0.1c0.1,0,0.1,0,0.1,0c0.2,0.1,0,0.2-0.2,0.2
			s-0.3,0.1-0.3,0.2l1.2,0.1l0,0h0.2l0,0c0.3,0,0.6,0,1,0h0.2c0-0.3-0.2-0.5-0.5-0.6c0.1-0.1,0.7,0.1,1.1,0.1c0.8,0,1.6-0.1,2.3-0.2
			c-0.2,0.1-0.4,0.1-0.6,0.1c0.5,0,1-0.1,1.5-0.3c0,0.1-0.6,0.4-0.2,0.4c0.7-0.1,1.3-0.2,2-0.5c0.5-0.2,0.8-0.4,0.7-0.5
			c-0.7,0.2-1.5,0.4-2.2,0.6c-0.1-0.1,1.6-0.4,1.5-0.5l2-0.5c-0.2,0.1-1,0.3-0.7,0.3c0.3-0.1,0.7-0.2,1-0.2
			c-0.5,0.2-1.1,0.6-1.8,0.9l-0.3,0.2c0.6-0.1,1.2-0.3,1.7-0.4c0.4-0.2,0.8-0.5,1.2-0.8c0.8-0.2,0.6,0.2,0.5,0.3
			c0.5-0.2,1-0.4,1.4-0.8c0.2-0.1,0.4-0.3,0.6-0.4c0.3-0.2,0.5-0.3,0.8-0.5l-0.6,0.2c0.3-0.2,1.6-0.7,1.4-0.7c0.3-0.1,0.7,0,0.4,0.2
			c0.4-0.3,0.8-0.6,1.1-1c-0.2,0.1,0.1,0.3,0,0.4c0.5-0.3,0.7-0.8,0.4-0.6c1-0.4,0.8-0.3,1.6-0.7c0.3-0.2-0.2-0.2-0.4-0.1
			c0.4-0.3,0.8-0.7,1.2-0.9l0,0l0,0c0.3-0.2,0.7-0.5,0.9-0.8l-0.4,0.8h-0.5l0,0c-0.7,0.6-0.3,0.7-0.1,0.8l0.6-0.4
			c0.4-0.5,0.8-1.1,1.2-1.6c0,0.1,0,0.3,0,0.4c0.4-0.5,0.8-1,1.3-1.4c0.7-0.7,1.4-1.6,1.9-2.1l-0.2,0.2c-0.1,0.1,0.1,0,0.4-0.3
			c0.2-0.3,0.5-0.5,0.6-0.9c-0.1,0.1-0.1,0.3-0.2,0.4c0.7-0.7,0.5-1.2,1.3-1.9c-0.6,0.7-0.6,0.9-0.5,0.9c0.4-0.6,1.4-2.1,1-1.9
			c0.3-0.4,0.5-0.8,0.6-0.7c0.1-0.3,0.3-0.6,0.4-0.8l0.3-0.9c0,0.1,0,0.3,0.2-0.2c-0.2,0.5-0.4,1-0.6,1.4c-0.1,0.3-0.4,0.7-0.6,0.9
			c0.1,0.1,0.4-0.2,0.3,0.3c0.2-0.4,0.4-0.8,0.6-1.2c0.1-0.3,0.3-0.7,0.4-1.1c0.2-0.7,0.4-1.2,0.5-1.8l0.7-1.6v-0.1l0.3-0.2
			c0-0.1,0-0.3,0.1-0.4c0,0,0,0,0,0.1c0.1-0.1,0.1-0.3,0.1-0.4c0,0-0.1,0-0.1,0.1c0.1-0.2,0.1-0.2,0.1-0.1s0.1,0.3,0.1,0.6l0.1-0.1
			c0.2-0.9,0.2-1.8-0.1-1.1l-0.2,0.6c0.1-0.3,0.2-0.5,0.2-0.6l0.4-1c0.1-1.2,0.1-1,0.2-2.5c0.1-0.1,0.1,0.3,0.2,0.1
			c0-0.6,0.1-1.2,0.3-1.7c0.1-0.4,0.1-0.7,0.1-1.1c0-0.9-0.1-0.4-0.2-0.9c0,0,0.1,0.1,0.1-0.1l-0.1-0.7c0.1-0.3,0.1,0.6,0.2-0.1
			c-0.2-1-0.2-2-0.3-3c-0.3-1.5-0.2,0.7-0.3-0.6c0.2-0.4,0.2-0.8,0.1-1.2c-0.2-0.3-0.3-0.7-0.4-1h0.2c-0.2-0.6-0.3-1.1-0.2-1.2
			c-0.2-0.3-0.4-0.7-0.5-1.1c-0.3-0.9-0.2,0.8-0.2,1c-0.1-1-0.3-1.6-0.4-2.2c0.1,0.3,0.2,0.5,0.3,0.8c-0.4-1.8-0.8-1.6-0.8-2.5
			c0.2,0.6,0.6,1.3,0.5,0.9l-0.4-0.8c0-0.1,0.2,0.5,0.1,0.1c-0.2-0.3-0.3-0.6-0.6-0.9h-0.1c0-0.1,0-0.1,0.1,0l0,0L71,65.5
			c0.1,0.3,0.2,0.3,0.1,0c-0.2-0.3-0.4-0.6-0.6-0.9l-0.2-0.3l0.2,0.3c0.2,0.3,0.1,0-0.2-0.5c-0.7-1.2-0.9-0.8-1.3-1.8
			c0.1,0.1,0.1,0.2,0.2,0.3c-0.1-0.2-0.2-0.3-0.3-0.5c-0.3,0.1-2-2.6-2.4-2.4c-0.4-0.7,0-0.1,0.8,0.5l-0.5-0.7l0.7,0.7
			c-0.5-0.7-1.2-1.4-1.9-1.9c-0.3-0.3,0.4,0-0.5-0.8c-1.3-1.1,0.1,0.4-0.7-0.2L64,56.9c-0.5-0.4-1-0.7-1.4-1.1l-1.2-1
			c-0.1-0.1-0.2-0.2-0.3-0.2l0,0h-0.1c-0.1,0,0.1,0.2-0.4-0.1l0.4,0.1l0,0C60,54,59,53.5,58,53c0.2,0.1-0.4-0.3-0.5-0.4
			c-0.5-0.2-1-0.4-1.5-0.6c0.7,0.2,0.7,0.1,0.8,0.1c-0.3-0.1-0.7-0.3-1-0.3c0.2,0,0.4,0.1,0.2-0.1l-1.6-0.4c0.1,0,0.3,0.1,0.4,0.2
			L53,50.9c0.1,0,0.3,0,0.3,0c0.3,0.2,0.6,0.3,1,0.3c-1.1-0.4-0.2-0.1-0.8-0.4c-0.8-0.2-1.2-0.1-1,0c-0.7-0.3-1.4-0.4-2.1-0.5
			l0.2-0.1l-0.9-0.1l0.7-0.1c-1.6-0.3-0.3,0.2-2.1-0.2v-0.1c-0.7-0.1-1,0.2-1.5,0c-0.7,0,1.2,0.2-0.5,0.2c-0.4-0.1-0.9-0.2-1.3-0.2
			c-0.1,0-0.2,0-0.2,0l0.2,0.1c0.2,0,0.4,0.1,0.7,0.1h-0.8c-0.3,0-0.5-0.1-0.8-0.2c-0.3-0.1-0.5-0.4-0.7-0.7
			c-0.1-0.3-0.2-0.5-0.3-0.8c-0.1-0.5,0.1-1.1,0.4-1.5c-0.3,0.4-0.3,0.2-0.3,0.1s0,0-0.1,0.1c-0.1,0.1-0.1,0.3-0.2,0.5l0,0
			c-0.1,0.3-0.1,0.5,0,0.8c-0.1-0.3-0.1-0.5,0-0.8l0,0c0-0.1,0.1-0.3,0.2-0.4l0,0c0.1-0.2,0.2-0.4,0.4-0.5c0.3-0.2,0.6-0.4,0.9-0.4
			c0.2,0,0.3-0.1,0.5-0.1h0.3l-0.3,0.1c-0.1,0-0.3,0.1-0.4,0.1H45h0.2h0.4l-0.1,0.1c1.1-0.2,2.1,0.2,2.8,0c-0.5,0.2,0.8,0.1,1.3,0.3
			c-0.9,0-2.6-0.3-2.8-0.1c0.4,0.1,0.8,0,1.2,0.1s0.4,0,0.1,0H48c-0.3,0-0.6,0-0.8,0.1c1.4,0.1,2.2,0.1,3.1,0.2l-1.5-0.2
			c0.1-0.2,0.7,0.1,1.1,0c0.7,0.2,1.3,0.1,1.9,0.3c-0.2,0-0.2,0-0.3-0.1c0.9,0.3,1.8,0.6,2.6,1c0.6,0.2,1.8,0.5,1.4,0.3
			c0.3,0.1-0.3-0.1-0.7-0.3s-0.9-0.3-0.4-0.3c0.5,0.3,1,0.5,1.5,0.6c0.8,0.2,1.5,0.5,2.2,0.9c-0.8-0.3,0.4,0.4-0.3,0.1
			c0.4,0.2,0.9,0.4,1.4,0.5l0.2,0.2c0.3,0.1,0.6,0.2,0.9,0.2c0.4,0.1,0.9,0.3,1.2,0.6c-0.6-0.3,0.6,0.5,0.1,0.3
			c0.4,0.3,0.8,0.5,1.3,0.7h-0.1c1.6,1.1,1.2,1,2.7,2l-0.1-0.2c0.5,0.3,1.1,0.6,1.6,1c0.5,0.4,1,0.8,1.5,1.3c0.9,1,1.9,1.9,2.6,2.9
			L70.5,58c0.1,0.2,1.1,1.3,1.4,1.9C72,60,72.1,60,72,60l0,0c-0.1-0.1-0.3-0.3-0.3-0.4c0,0,0,0.3,0.4,0.8c0.1,0,0.1,0.1,0.2,0.1
			l0.1,0.2c0.5,0.8,0-0.3,0.4,0.5c0.2,0.7,0.6,1.4,1,2c0.4,0.7,0.7,1.4,0.9,2.2c0.4,0.5-0.7-1.5-0.2-1c0.1,0.3,0.2,0.6,0.3,0.9v-0.2
			c0.4,1,0.8,2,1.1,3c0.3,0.8,0.5,1.7,0.8,2.8v-0.1c0.1,0.6,0.2,1.1,0.5,1.6c0,0.2-0.2-0.4-0.2-0.1c0.2,0.7,0.3,1.4,0.3,2.1
			c0,0.3,0,0.7,0.1,0.9c0,0.3,0,0.5,0.1,0.8C77.3,76.1,77.3,76.4,77.2,76.7z M54.5,106.1c0.9-0.2,0.1-0.2,1.1-0.5
			c0.3,0.1,0,0.1-0.6,0.4l-0.3,0.2l0.3-0.2C55.3,105.9,54.3,106.2,54.5,106.1z M65.1,58.2c0.1-0.2,0.2,0.2,0.7,0.7
			C65.5,58.7,65.3,58.4,65.1,58.2z M69.9,64.1l0.1-0.2v0.3L69.9,64.1z M73.1,72c0.1,0.2,0.1,0.4,0.1,0.6h-0.1L73.1,72z"/>
		<path class="st0" d="M0.1,68.8c0,0.2,0,0.3,0,0.5C0.1,69.1,0.1,69,0.1,68.8z"/>
		<path class="st0" d="M52.5,116.4c-0.1,0-0.1,0-0.2,0C52.2,116.4,52.2,116.4,52.5,116.4z"/>
		<path class="st0" d="M4.8,93.3L4.8,93.3L4.8,93.3z"/>
		<path class="st0" d="M85.6,72.7c0,0,0.1-0.1,0.1-0.7C85.7,72.2,85.7,72.5,85.6,72.7z"/>
		<path class="st0" d="M80.5,51.3l-0.3-0.5c0.1,0.2,0.1,0.4,0.2,0.6L80.5,51.3z"/>
		<path class="st0" d="M82,54.5c-0.1-0.1-0.6-1.3-0.2-0.2C81.9,54.4,82.7,56,82,54.5z"/>
		<path class="st0" d="M82.1,90.5c-0.3,0.9-0.5,1.4-0.2,1c0.6-1.5,0-0.4,0.6-1.7C82.5,89.5,82,90.9,82.1,90.5z"/>
		<path class="st0" d="M82.1,90.5l0.1-0.5C82.1,90.3,82.1,90.5,82.1,90.5z"/>
		<path class="st0" d="M29.6,115.8L29.6,115.8c-0.2-0.1-0.4-0.3-0.7-0.3L29.6,115.8z"/>
		<polygon class="st0" points="17.2,109.1 17.4,109.2 17.2,108.8 		"/>
		<path class="st0" d="M8.8,100.7c0.3,0.4,0.6,0.8,0.9,1.2C9.1,101.1,8.9,100.5,8.8,100.7z"/>
		<path class="st0" d="M70.4,64.7l-0.2-0.3L70.4,64.7z"/>
		<path class="st0" d="M71.6,67L71.6,67C71.6,67,71.5,66.9,71.6,67z"/>
		<path class="st0" d="M73.2,86.7c-0.1,0.1-0.1,0.3-0.2,0.6L73.2,86.7z"/>
		<path class="st0" d="M60.9,54.6l-0.4-0.1C61,54.8,60.8,54.6,60.9,54.6z"/>
		<path class="st0" d="M72,60L72,60L72,60z"/>
		<path class="st0" d="M42.6,110.8L42.6,110.8C42.7,110.8,42.7,110.8,42.6,110.8z"/>
		<path class="st0" d="M48.1,46.4L48.1,46.4C48.5,46.4,48.4,46.4,48.1,46.4z"/>
		<path class="st0" d="M62.6,101.9L62.6,101.9L62.6,101.9z"/>
		<path class="st0" d="M63.5,101.1c-0.2,0.3-0.5,0.6-0.9,0.8h0.5L63.5,101.1z"/>
		<path class="st0" d="M43.2,47.4c0-0.2,0.1-0.3,0.2-0.5l0,0C43.3,47.1,43.2,47.2,43.2,47.4z"/>
		<path class="st0" d="M43.2,48.2c-0.1-0.3-0.1-0.5,0-0.8C43.1,47.7,43.1,48,43.2,48.2z"/>
		<path class="st0" d="M73,87.4C73,87.3,73.1,87.3,73,87.4C73.1,87.2,73,87.2,73,87.4z"/>
		<path class="st0" d="M61,54.6L61,54.6L61,54.6z"/>
		<path class="st0" d="M43.2,107.8c-0.1,0-0.3-0.1-0.5-0.1L43.2,107.8L43.2,107.8C43.3,107.8,43.3,107.8,43.2,107.8z"/>
		<path class="st0" d="M52.4,110.1v0.2l0.4-0.2C52.7,110.1,52.5,110.1,52.4,110.1z"/>
		<path class="st0" d="M50.2,110.7c-0.1,0.1-1.3,0.3-0.2,0.1C50.2,110.8,51.1,110.6,50.2,110.7z"/>
		<path class="st0" d="M55.6,105.6c-1,0.3-0.2,0.2-1.1,0.5c-0.2,0.1,0.8-0.2,0.5-0.1C55.7,105.7,56,105.7,55.6,105.6z"/>
		<path class="st0" d="M55.1,106l-0.3,0.2L55.1,106z"/>
		<path class="st0" d="M73.1,72v0.5h0.1C73.1,72.4,73.1,72.2,73.1,72z"/>
		<polygon class="st0" points="69.9,64.1 69.9,64.2 69.9,63.9 		"/>
		<path class="st0" d="M65.1,58.2c0.3,0.2,0.5,0.4,0.7,0.7C65.3,58.4,65.1,58,65.1,58.2z"/>
		<path class="st0" d="M36.7,101.9l0.2,0.6L36.7,101.9z"/>
		<path class="st0" d="M35.9,97.7L35.9,97.7C35.9,97.8,36,97.8,35.9,97.7z"/>
		<path class="st0" d="M24.1,105.8c-0.2-0.1-0.5-0.2-0.7-0.3C24.4,106.2,24,105.8,24.1,105.8z"/>
		<path class="st0" d="M27.3,29.2l0.1-0.1C27.4,29.1,27.4,29.1,27.3,29.2z"/>
		<path class="st0" d="M12.8,85.7L12.8,85.7C12.8,85.6,12.8,85.6,12.8,85.7z"/>
		<path class="st0" d="M8.5,70.8v-0.1C8.6,70.1,8.6,70.4,8.5,70.8z"/>
		<path class="st0" d="M32.1,96.3L32.1,96.3z"/>
		<path class="st0" d="M31.8,94.3c0.2,0.7,0.2,1.3,0.3,2l0.3-0.7C32.2,95.2,32,94.8,31.8,94.3z"/>
		<path class="st0" d="M39.4,65.7L39.4,65.7z"/>
		<path class="st0" d="M39.2,65.7L39.2,65.7z"/>
		<path class="st0" d="M38,66.6c0.1-0.1,0.1-0.1,0.2-0.1C38.3,66.3,38.2,66.3,38,66.6z"/>
		<path class="st0" d="M24.2,105.9L24.2,105.9h-0.1H24.2z"/>
		<path class="st0" d="M16.3,92.3c0.2,0.3,0.2,0.6,0.3,0.7S16.5,92.9,16.3,92.3z"/>
		<path class="st0" d="M15.8,54.7L15.7,55l-0.3,0.6v0.1L15.8,54.7z"/>
		<path class="st0" d="M15.4,55.8L15.4,55.8l-0.1,0.2L15.4,55.8z"/>
		<path class="st0" d="M11.9,69.1c0,0.2-0.1,0.4-0.2,0.6l0.1,0.1L11.9,69.1z"/>
		<path class="st0" d="M11.6,73.6c0-0.2,0-1.6-0.1-0.3C11.6,73.5,11.6,75.5,11.6,73.6z"/>
		<path class="st0" d="M32.7,105.4c-1.6-0.6-0.4,0-1.9-0.6c-0.4-0.1,1.2,0.5,0.8,0.4C32.6,105.6,33.2,105.8,32.7,105.4z"/>
		<path class="st0" d="M31.6,105.3l-0.5-0.2L31.6,105.3z"/>
		<path class="st0" d="M35.8,89.1l0.2-0.9v-0.1C35.9,88.5,35.8,88.8,35.8,89.1z"/>
		<polygon class="st0" points="37.2,103.2 37.2,102.9 37.1,103.4 		"/>
		<path class="st0" d="M32.8,109.9c0.5,0.1,1.2,0.3,1.7,0.4C33.3,110.1,32.7,109.7,32.8,109.9z"/>
		<path class="st0" d="M43.8,61.4C43.8,61.4,43.8,61.4,43.8,61.4C43.9,61.4,43.8,61.4,43.8,61.4z"/>
		<polygon class="st0" points="43.6,61.2 43.5,61.2 43.6,61.2 		"/>
		<path class="st0" d="M43.5,61.1L43.5,61.1L43.5,61.1C43.6,61.1,43.4,61,43.5,61.1C43.4,61,43.5,61,43.5,61.1z"/>
		<path class="st0" d="M43.5,60.7L43.5,60.7L43.5,60.7z"/>
		<path class="st0" d="M43.3,60.7L43.3,60.7L43.3,60.7C43.3,60.6,43.3,60.6,43.3,60.7z"/>
		<path class="st0" d="M43.3,60.7L43.3,60.7L43.3,60.7C43.3,60.7,43.3,60.7,43.3,60.7z"/>
		<path class="st0" d="M43.4,60.7C43.4,60.7,43.4,60.8,43.4,60.7C43.4,60.8,43.4,60.8,43.4,60.7z"/>
		<path class="st0" d="M43.3,61.1L43.3,61.1C43.3,61.1,43.3,61,43.3,61.1z"/>
		<path class="st0" d="M43.2,60.5C43.2,60.5,43.2,60.5,43.2,60.5L43.2,60.5C43.2,60.5,43.2,60.5,43.2,60.5z"/>
		<polygon class="st0" points="43.2,60.8 43.3,60.8 43.2,60.8 		"/>
		<polygon class="st0" points="43.1,60.4 43,60.4 43,60.4 		"/>
		<path class="st0" d="M42.9,60.3C42.9,60.3,42.9,60.3,42.9,60.3C42.9,60.2,42.9,60.2,42.9,60.3C42.8,60.3,42.9,60.3,42.9,60.3z"/>
		<path class="st0" d="M43,60.5L43,60.5L43,60.5C43,60.5,43,60.5,43,60.5z"/>
		<path class="st0" d="M43,60.5L43,60.5L43,60.5z"/>
		<path class="st0" d="M43.1,60.7C43.1,60.7,43.1,60.7,43.1,60.7C43.2,60.7,43,60.7,43.1,60.7z"/>
		<path class="st0" d="M43,60.6L43,60.6L43,60.6L43,60.6z"/>
		<polygon class="st0" points="43,60.6 43,60.6 43,60.6 		"/>
		<path class="st0" d="M42.8,60.4C42.8,60.4,42.8,60.4,42.8,60.4L42.8,60.4C42.8,60.4,42.9,60.4,42.8,60.4z"/>
		<polygon class="st0" points="42.5,60.3 42.5,60.3 42.6,60.3 		"/>
		<path class="st0" d="M42.9,60.5L42.9,60.5L42.9,60.5C42.9,60.5,42.9,60.5,42.9,60.5z"/>
		<path class="st0" d="M42.7,60.3L42.7,60.3C42.7,60.3,42.7,60.3,42.7,60.3z"/>
		<path class="st0" d="M42.9,60.4L42.9,60.4L42.9,60.4z"/>
		<path class="st0" d="M42.6,60.4L42.6,60.4C42.6,60.4,42.6,60.4,42.6,60.4C42.6,60.2,42.6,60.3,42.6,60.4L42.6,60.4L42.6,60.4z"/>
		<path class="st0" d="M42.7,60.5C42.7,60.5,42.7,60.5,42.7,60.5C42.8,60.5,42.7,60.5,42.7,60.5l0.1-0.1l0,0l0,0l0,0l0,0l0,0l0,0
			L42.7,60.5l0.1-0.1C42.8,60.4,42.7,60.4,42.7,60.5z"/>
		<path class="st0" d="M43,60.8L43,60.8C43,60.8,43.1,60.8,43,60.8L43,60.8v-0.2C43,60.6,43,60.7,43,60.8C43,60.7,43,60.8,43,60.8z"
			/>
		<path class="st0" d="M42.8,60.6L42.8,60.6C42.8,60.6,42.8,60.6,42.8,60.6L42.8,60.6L42.8,60.6z"/>
		<polygon class="st0" points="42.6,60.2 42.5,60.3 42.5,60.3 		"/>
		<polygon class="st0" points="42.4,60.2 42.5,60.3 42.5,60.2 		"/>
		<path class="st0" d="M40.3,61.1L40.3,61.1L40.3,61.1C40.3,61.1,40.3,61.1,40.3,61.1z"/>
		<path class="st0" d="M41.5,60.3C41.5,60.3,41.4,60.3,41.5,60.3C41.4,60.3,41.5,60.4,41.5,60.3z"/>
		<path class="st0" d="M41.3,60.3L41.3,60.3C41.4,60.3,41.4,60.3,41.3,60.3C41.4,60.3,41.4,60.3,41.3,60.3z"/>
		<path class="st0" d="M42,60.2L42,60.2z"/>
		<path class="st0" d="M42.3,60.2L42.3,60.2L42.3,60.2C42.3,60.2,42.3,60.2,42.3,60.2z"/>
		<path class="st0" d="M42.3,60.4C42.3,60.5,42.3,60.4,42.3,60.4L42.3,60.4C42.4,60.4,42.3,60.4,42.3,60.4z"/>
		<path class="st0" d="M42.4,60.5L42.4,60.5z"/>
		<path class="st0" d="M42,60.2C42,60.1,41.9,60.3,42,60.2S42,60.2,42,60.2z"/>
		<polygon class="st0" points="42.3,60.5 42.3,60.6 42.3,60.6 		"/>
		<path class="st0" d="M42.2,60.5L42.2,60.5L42.2,60.5z"/>
		<path class="st0" d="M41.6,60.5L41.6,60.5C41.6,60.5,41.6,60.6,41.6,60.5L41.6,60.5z"/>
		<polygon class="st0" points="43.9,61.4 43.8,61.5 43.9,61.5 		"/>
		<path class="st0" d="M43.7,61.5L43.7,61.5L43.7,61.5C43.7,61.4,43.8,61.4,43.7,61.5z"/>
		<path class="st0" d="M46.6,56.4C46.6,56.4,46.6,56.4,46.6,56.4C46.7,56.4,46.5,56.4,46.6,56.4z"/>
		<polygon class="st0" points="46.3,56.2 46.3,56.2 46.3,56.2 		"/>
		<path class="st0" d="M46.2,56.1L46.2,56.1L46.2,56.1c0.1,0-0.1-0.1-0.1-0.1S46.2,56.1,46.2,56.1z"/>
		<path class="st0" d="M46.2,55.8L46.2,55.8C46.2,55.8,46.2,55.8,46.2,55.8z"/>
		<path class="st0" d="M46.1,55.7L46.1,55.7L46.1,55.7C46.1,55.7,46.1,55.7,46.1,55.7z"/>
		<path class="st0" d="M46.1,55.7L46.1,55.7L46.1,55.7C46,55.7,46,55.8,46.1,55.7z"/>
		<path class="st0" d="M46.1,55.8L46.1,55.8C46.1,55.8,46.2,55.8,46.1,55.8z"/>
		<path class="st0" d="M46.1,56.1L46.1,56.1C46.1,56.1,46.1,56,46.1,56.1z"/>
		<path class="st0" d="M45.9,55.5L45.9,55.5L45.9,55.5C45.9,55.6,45.9,55.5,45.9,55.5z"/>
		<polygon class="st0" points="46,55.8 46,55.8 46,55.8 		"/>
		<polygon class="st0" points="45.8,55.4 45.8,55.4 45.8,55.4 		"/>
		<path class="st0" d="M45.7,55.4C45.7,55.4,45.7,55.3,45.7,55.4C45.6,55.3,45.6,55.3,45.7,55.4C45.6,55.3,45.7,55.3,45.7,55.4z"/>
		<path class="st0" d="M45.8,55.5L45.8,55.5L45.8,55.5C45.8,55.5,45.8,55.5,45.8,55.5z"/>
		<path class="st0" d="M45.8,55.5L45.8,55.5L45.8,55.5z"/>
		<path class="st0" d="M45.8,55.8C45.8,55.8,45.8,55.7,45.8,55.8C46,55.7,45.8,55.7,45.8,55.8z"/>
		<path class="st0" d="M45.8,55.7L45.8,55.7L45.8,55.7L45.8,55.7z"/>
		<polygon class="st0" points="45.8,55.6 45.8,55.6 45.8,55.6 		"/>
		<path class="st0" d="M45.6,55.4C45.6,55.4,45.6,55.4,45.6,55.4L45.6,55.4C45.6,55.4,45.6,55.4,45.6,55.4z"/>
		<polygon class="st0" points="45.3,55.4 45.3,55.4 45.3,55.4 		"/>
		<path class="st0" d="M45.6,55.5L45.6,55.5L45.6,55.5C45.6,55.5,45.6,55.5,45.6,55.5z"/>
		<path class="st0" d="M45.5,55.3L45.5,55.3C45.5,55.3,45.5,55.3,45.5,55.3z"/>
		<path class="st0" d="M45.7,55.5L45.7,55.5L45.7,55.5z"/>
		<path class="st0" d="M45.4,55.4L45.4,55.4C45.4,55.4,45.4,55.3,45.4,55.4C45.4,55.3,45.4,55.3,45.4,55.4L45.4,55.4L45.4,55.4z"/>
		<path class="st0" d="M45.4,55.5C45.5,55.5,45.5,55.5,45.4,55.5C45.5,55.5,45.5,55.5,45.4,55.5L45.4,55.5L45.4,55.5L45.4,55.5
			L45.4,55.5L45.4,55.5L45.4,55.5L45.4,55.5C45.5,55.5,45.4,55.5,45.4,55.5z"/>
		<path class="st0" d="M45.8,55.8L45.8,55.8C45.8,55.8,45.8,55.8,45.8,55.8L45.8,55.8c0-0.1,0-0.1,0-0.2
			C45.7,55.7,45.7,55.7,45.8,55.8C45.8,55.8,45.7,55.8,45.8,55.8z"/>
		<path class="st0" d="M45.5,55.7L45.5,55.7C45.5,55.7,45.5,55.7,45.5,55.7L45.5,55.7L45.5,55.7z"/>
		<polygon class="st0" points="45.3,55.3 45.3,55.3 45.3,55.3 		"/>
		<polygon class="st0" points="45.2,55.3 45.2,55.3 45.2,55.3 		"/>
		<path class="st0" d="M43.1,56.2L43.1,56.2L43.1,56.2C43.2,56.2,43,56.1,43.1,56.2z"/>
		<path class="st0" d="M44.3,55.4L44.3,55.4C44.2,55.4,44.3,55.4,44.3,55.4z"/>
		<path class="st0" d="M44.1,55.4L44.1,55.4L44.1,55.4C44.1,55.4,44.1,55.3,44.1,55.4z"/>
		<path class="st0" d="M44.8,55.2L44.8,55.2z"/>
		<path class="st0" d="M45,55.2L45,55.2L45,55.2C45,55.2,45,55.2,45,55.2z"/>
		<path class="st0" d="M45.1,55.4C45.1,55.5,45.1,55.4,45.1,55.4L45.1,55.4C45.1,55.4,45.1,55.4,45.1,55.4z"/>
		<path class="st0" d="M45.1,55.5L45.1,55.5z"/>
		<path class="st0" d="M44.8,55.2C44.8,55.2,44.7,55.3,44.8,55.2S44.8,55.2,44.8,55.2z"/>
		<polygon class="st0" points="45.1,55.5 45,55.6 45.1,55.6 		"/>
		<path class="st0" d="M44.9,55.5L44.9,55.5L44.9,55.5z"/>
		<path class="st0" d="M44.4,55.6L44.4,55.6L44.4,55.6C44.4,55.6,44.4,55.7,44.4,55.6z"/>
		<polygon class="st0" points="46.6,56.5 46.6,56.5 46.6,56.5 		"/>
		<path class="st0" d="M46.5,56.5L46.5,56.5L46.5,56.5L46.5,56.5z"/>
		<path class="st0" d="M106.7,62.2c-0.5-0.5-0.8-1.2-0.8-2c0-0.8,0.3-1.6,0.9-2.2c0.5-0.6,1.3-1,2.1-1c0.7,0.1,1.4,0.4,1.9,1
			c0.6,0.5,0.9,1.3,0.9,2.1c0,2-1.1,3-3.3,3C107.8,63,107.2,62.7,106.7,62.2z"/>
		<path class="st0" d="M125.9,102.2v-1.5c0.1-0.5,0.1-0.9,0.1-1.4l-0.5-0.5c0.6-1.5,0.9-3.2,0.9-4.8c0-1.8-0.1-4.4-0.3-7.8l-0.2-7.8
			c0-3.9,0.1-9.8,0.4-17.7c0.3-7,0.5-12.9,0.5-17.8l-0.2-7.1c-0.2-2.1-0.2-4.5-0.2-7.1c-0.1-0.9,0.2-1.8,0.8-2.5
			c0.7-0.6,1.7-0.8,2.6-0.8c0.7,0,1.4,0.2,1.9,0.7c1.1,0.2,2.3,0.4,3.4,0.5c1.7,0.2,3.4,0.5,5.1,1.1c1.5,0.5,2.2,1.1,2.2,1.8
			s-0.8,1.6-2.2,2.4c-4.5-1.5-7.7-2.2-9.6-2.2l-0.6,0.7c0.1,0.7,0.1,2.4,0.1,5.1c0,3.4-0.1,6.4-0.2,9.1c-0.2,2.7-0.2,5.7-0.1,9.2
			c0,2.2,0.6,3.3,1.7,3.3l1.9-0.1c0.7-0.1,1.3-0.1,2-0.1c3.1,0,4.6,0.7,4.6,2.1c0,0.8-0.2,1.5-0.6,2.2c-0.4,0.6-1.1,0.9-1.8,0.9
			c-1,0.1-2-0.3-2.7-0.9l-3.7-0.6h-0.6l-0.6,0.6v0.3c0.2,1.3,0.2,4.4,0.2,9.3c0,3.1,0,5.9-0.1,8.4l-0.1,8.4c0,3.1,0.1,6.2,0.4,9.4
			c0.1,1.8,0.5,3,1.2,3.6s2,0.9,3.9,0.9l2.1-0.1c0.8-0.1,1.6-0.1,2.4-0.1c2.3,0,3.4,0.5,3.4,1.5c0,1.4-1.7,2.1-5.2,2.1h-9.7
			C126.8,104.7,126.1,103.9,125.9,102.2z"/>
		<path class="st0" d="M165,104c-1.4-0.4-2.7-1.1-3.8-2c-1.2-1.1-2.3-2.4-3-3.9c-1.7-3.2-2.6-7.7-2.9-13.6c-0.2-2.7-0.2-5-0.2-7.1
			V64c0-5.1,0.2-10.1,0.5-14.9c0.2-3,0.5-6,1.1-9c0.5-2.5,1.2-5,2.2-7.3c0.8-2,2-3.9,3.7-5.3c1-0.7,2-1.3,3.2-1.7c1-0.4,2-0.8,3-1.3
			h5.1c0.1,0.1,0.2,0.1,0.4,0.1l0.6,0.1l0.5,0.4c0.2,0.2,0.4,0.4,0.4,0.5c0.1,0.2,0.1,0.5,0.1,0.7l-1.6,1.8h-5
			c-1.6,0.1-3.1,0.9-4.1,2.2c-1.3,1.6-2.2,3.5-2.8,5.5c-0.7,2.3-1.2,4.6-1.5,7c-0.4,2.3-0.6,4.7-0.7,7c-0.2,2.5-0.2,4.2-0.2,5.2
			l-0.2,0.6c0,4.4-0.1,8.4-0.2,11.9L159,79.3c0,3.2,0.2,6.4,0.7,9.6c0.4,3.1,1.5,6,3.4,8.5c1.8,2.5,4.6,3.8,8.4,3.8
			c1.1,0,2.2-0.3,3-1.1c1.2,0,1.8,0.4,1.8,1.3c0,0.6-0.5,1.2-1.5,1.9c-0.9,0.7-1.9,1.3-3,1.7h-3.9L165,104z"/>
		<path class="st0" d="M188.4,62v-4.2c0-22,2.8-33,8.5-33c0.6,0,1.1,0.2,1.6,0.4c2.4,0.8,4.9,1.4,7.5,1.7c1.5,0.3,3,1.9,4.5,4.6
			c1.9,3.5,3.1,7.3,3.7,11.2c0.8,4.7,1.2,9.5,1.2,14.3l-0.2,0.6c0,2.6,0,4.9,0.1,7l0.1,7.1c0,4-0.2,7.6-0.5,10.9
			c-0.4,4.3-1.2,8.5-2.4,12.6c-0.6,1.9-1.4,3.6-2.4,5.3c-0.9,1.4-2,2.6-3.4,3.5c-1.3,1-3,1.5-4.6,1.4C193,105.4,188.4,91,188.4,62z
			 M208.6,95.5c1.5-4.4,2.4-8.9,2.7-13.5c0.3-4.7,0.5-8.5,0.5-11.3c0-3.2-0.2-7.8-0.7-13.9c-0.4-6.8-0.6-11.5-0.6-13.9l-0.5-1
			l0.2-0.6c0.1-3.2-0.9-6.4-2.9-9c-1.6-2.3-4.2-3.7-7-3.8c-3.6,0-5.8,1.7-6.5,5.2c-0.2,1.2-0.3,2.9-0.5,5.1c0,5.8-0.2,9.8-0.7,11.9
			c0,1.2-0.1,3-0.4,5.5l-0.3,5.6c0,1.7,0,3.3,0.1,4.6l0.1,4.7c0.1,4.3,0.4,8.5,1,12.8c0.4,3,0.9,6,1.6,9c0.5,2.2,1.5,4.3,2.7,6.3
			c1.2,1.9,2.6,2.8,4.1,2.8C204.8,102,207.1,99.8,208.6,95.5L208.6,95.5z"/>
		<path class="st0" d="M240,103.6c0-6.1-1-15-2.9-26.8S232.6,52,229.5,38l-0.9-3.7l-1.5-5.4c-0.3-1-0.6-2-0.7-3.1
			c0.2-0.7,0.8-1.3,1.5-1.4c1.1,0,2,1.2,2.6,3.7c0.3,1,0.6,2.2,0.9,3.5s0.5,2.2,0.6,2.8c0.1,0.7,0.2,1.4,0.4,2.1
			c1.5,6.1,2.4,9.9,2.7,11.6l1.2,6l1.1,5.7l1.1,6c0.2,1.9,0.5,3.7,0.9,5.6l1.7,11.6c0,0.3,0.3,2.3,0.8,6l0.8,5.8
			c1.6-5.1,2.9-12.9,4-23.4c1.1-9.8,2.7-19.6,4.7-29.4c1.7-8.5,2.9-14.7,3.7-18.5l1.5-0.6c0.3,0.1,0.6,0.3,0.9,0.5
			c0.2,0.2,0.4,0.4,0.4,0.7c-0.1,2.4-0.4,4.8-1,7.1l-0.7,3.1l-2,9.3c-1.2,5.1-2,9.1-2.4,11.8c-0.4,2.8-0.9,6.7-1.5,11.9l-0.3,2.8
			c-0.4,4.3-0.7,7.1-0.9,8.6c-0.3,2-0.8,3.9-1.4,5.8c-0.6,2.4-1.1,4.4-1.5,6.3l-0.2,2.7c-0.1,2.5-0.4,4.9-0.9,7.3
			c-0.6,2.7-1.9,4-3.8,4L240,103.6z M242.6,95.1l-0.1,0.2l0.1,0.2V95.1z"/>
		<path class="st0" d="M276,102c-0.3,0-0.6,0-0.9,0.1h-1c-1.7,0-2.8-0.4-3.3-1.2c0-0.6,0.4-1.1,1-1.4l0.6-0.6h3.4l0.5-0.5l0.2-1.1
			l0.1-1.4c0-4.8-0.1-9.1-0.4-12.9l-0.2-4.3l-0.2-8.6c0-3.1,0.1-7.7,0.4-13.8l0.2-13.7c0.1-4.6-0.1-9.1-0.6-13.7
			c-1.2-0.3-2.3-0.4-3.5-0.4l-1.3,0.1c-0.5,0.1-1,0.1-1.5,0.1c-1.5,0-2.2-0.7-2.2-2c0-0.3,0.4-0.6,1.1-1c0.6-0.3,1.2-0.4,1.8-0.5
			c3,0,6,0.2,9,0.5c1.9,0.1,3.7,0.5,5.4,1.1c1.4,0.5,2.1,1.1,2.1,2c-0.1,0.3-0.2,0.7-0.4,1l-2.7,0.2c-0.5-0.5-1.7-0.7-3.4-0.7
			l-0.6,0.4c0.3,2.1,0.4,4.2,0.4,6.3c0,5.2,0,9.9-0.1,14l-0.2,14.1c0,3.5,0.2,7.8,0.5,12.9c0.2,5.8,0.4,10.1,0.4,13v1.5
			c-0.1,0.7-0.1,1.4-0.1,2.1c-0.1,1.1,0,2.2,0.4,3.3l-0.1,0.2c0,0.8,0.9,1.2,2.6,1.2c0.6,0,1.2,0,1.8-0.1h1.8c2.3,0,3.4,0.6,3.4,1.7
			c0,0.6-0.2,1.3-0.7,1.7c-0.5,0.5-1.2,0.7-1.9,0.7c-0.6,0-1.3-0.1-1.9-0.2c-0.7-0.1-1.3-0.1-2-0.1c-0.7,0.1-1.5,0.3-2.1,0.6
			c-0.7,0.4-1.4,0.6-2.1,0.7C277.4,103.2,276.3,102.8,276,102z"/>
		<path class="st0" d="M309.5,104c-1.4-0.4-2.7-1.1-3.8-2c-1.2-1.1-2.3-2.4-3-3.9c-1.7-3.2-2.6-7.7-3-13.6c-0.2-2.7-0.2-5-0.2-7.1
			V64c0-5.1,0.2-10.1,0.5-14.9c0.2-3,0.5-6,1.1-9c0.5-2.5,1.2-5,2.2-7.3c0.8-2,2-3.9,3.7-5.3c1-0.7,2.1-1.3,3.2-1.7
			c1-0.4,2-0.8,3-1.3h5.1c0.1,0.1,0.2,0.1,0.4,0.1l0.6,0.1l0.5,0.4c0.2,0.2,0.4,0.4,0.4,0.5c0.1,0.2,0.1,0.5,0.1,0.7l-1.5,1.8h-5
			c-1.6,0.1-3.1,0.9-4.1,2.2c-1.3,1.6-2.2,3.5-2.8,5.5c-0.7,2.3-1.2,4.6-1.5,7c-0.4,2.3-0.6,4.7-0.7,7c-0.2,2.5-0.2,4.2-0.2,5.2
			l-0.2,0.6c0,4.4-0.1,8.4-0.2,11.9l-0.2,11.9c0,3.2,0.2,6.4,0.7,9.6c0.4,3.1,1.5,6,3.4,8.5c1.8,2.5,4.6,3.8,8.4,3.8
			c1.1,0,2.2-0.3,3-1.1c1.2,0,1.8,0.4,1.8,1.3c0,0.6-0.5,1.2-1.5,1.9c-0.9,0.7-1.9,1.3-3,1.7h-3.9L309.5,104z"/>
		<path class="st0" d="M355.5,103.8c-0.5-0.6-0.7-1.4-0.7-2.2c-0.7-5.7-1.1-9.3-1.3-10.7l-0.6-4.7c-1.9-0.4-3.9-0.6-5.9-0.6
			l-4.3-0.2c-1.4-0.2-2.7-0.3-4.1-0.3c-0.4-0.1-0.8,0.2-0.8,0.6c0,0.2,0,0.4-0.1,0.4l-0.2,2.4c-0.3,2.9-0.7,5.7-1.3,8.5
			c-0.3,1.7-0.7,3.4-1.4,5c-0.6,1.3-1.2,2-1.8,2c-0.6,0-1.1-0.3-1.5-0.7c-0.5-0.3-0.8-0.8-0.8-1.4l0.1-0.3l0.1-0.4
			c1.4-5.6,2.6-11.1,3.5-16.7l1.4-7.3l1.4-9l1.3-7.8c0.4-2.1,1.1-5.5,2.1-10.3c1.1-5.3,1.8-9,2-11c0.1-0.2,0.2-1.7,0.5-4.4
			c0.3-3,0.6-5.2,0.8-6.6c0-1.2,0.3-2.4,0.7-3.5h0.8c0.3,0.1,0.5,0.1,0.8,0.1c0.8,0.1,1.5-0.2,2.1-0.7c0.5,0,1.1,0.2,1.5,0.5
			c0.4,0.3,0.6,0.7,0.6,1.2c0,4.3,0.3,8.7,0.8,13c0.3,2.5,0.5,4.6,0.7,6.3c0.9,10.2,3.1,29.2,6.6,57.2v0.4c0,0.7-0.4,1.4-1,1.8
			C356.9,104.3,356.1,104.2,355.5,103.8z M352.3,83c-0.8-11.3-2.3-28.1-4.5-50.2l-6.4,31.5c-1.8,9.1-2.7,14.8-2.7,17.1
			c0,0.4,1.5,0.8,4.5,1.1c2.6,0.3,5.3,0.5,7.9,0.5H352.3z"/>
		<path class="st0" d="M369.5,62.2c-0.5-0.5-0.8-1.2-0.8-2c0-0.8,0.4-1.6,1-2.2c0.5-0.6,1.3-1,2.1-1c0.7,0.1,1.4,0.4,1.9,1
			c0.6,0.5,0.9,1.3,0.9,2.1c0,2-1.1,3-3.3,3C370.6,63,369.9,62.7,369.5,62.2z"/>
	</g>
</g>
</svg>
