<?xml version="1.0" encoding="utf-8"?>
<!-- Generator: Adobe Illustrator 25.4.1, SVG Export Plug-In . SVG Version: 6.00 Build 0)  -->
<svg version="1.1" id="Capa_1" xmlns="http://www.w3.org/2000/svg" xmlns:xlink="http://www.w3.org/1999/xlink" x="0px" y="0px"
	 viewBox="0 0 463 463" style="enable-background:new 0 0 463 463;" xml:space="preserve">
<style type="text/css">
	.st0{fill:#3A4D43;}
</style>
<g>
	<path class="st0" d="M412.1,86.7h-7V72.5c0-12.1-9.8-22-22-22h-81.1l-9.9-34.7C289.6,6.5,280.9,0,271.2,0h-79.4
		c-9.7,0-18.4,6.5-21.1,15.9l-9.9,34.7H79.8c-12.1,0-22,9.8-22,22v14.2h-7c-4.1,0-7.5,3.4-7.5,7.5s3.4,7.5,7.5,7.5h14.8l26.2,327.8
		c1.5,18.8,17.4,33.5,36.3,33.5h206.8c18.8,0,34.8-14.7,36.3-33.5l26.2-327.8h14.8c4.1,0,7.5-3.4,7.5-7.5S416.3,86.7,412.1,86.7z
		 M185.1,20c0.8-3,3.6-5,6.7-5h79.4c3.1,0,5.8,2.1,6.7,5l8.7,30.5H176.4L185.1,20z M79.8,65.6h86.9c0,0,0,0,0,0h129.9c0,0,0,0,0,0
		c0,0,0,0,0,0h86.7c3.8,0,7,3.1,7,7v14.2H72.8V72.5C72.8,68.7,75.9,65.6,79.8,65.6z M356.2,428.3c-0.9,11-10.3,19.7-21.3,19.7H128.1
		c-11.1,0-20.5-8.7-21.3-19.7L80.7,101.7h301.7L356.2,428.3z"/>
	<path class="st0" d="M231.5,426.9c4.1,0,7.5-3.4,7.5-7.5V137.6c0-4.1-3.4-7.5-7.5-7.5s-7.5,3.4-7.5,7.5v281.8
		C224,423.5,227.4,426.9,231.5,426.9z"/>
	<path class="st0" d="M159,419.8c0.2,4,3.5,7.1,7.5,7.1c0.1,0,0.3,0,0.4,0c4.1-0.2,7.3-3.7,7.1-7.9l-14.5-281.8
		c-0.2-4.1-3.7-7.3-7.9-7.1c-4.1,0.2-7.3,3.7-7.1,7.9L159,419.8z"/>
	<path class="st0" d="M296.1,426.9c0.1,0,0.3,0,0.4,0c4,0,7.3-3.1,7.5-7.1l14.5-281.8c0.2-4.1-3-7.7-7.1-7.9c-4.1-0.2-7.7,3-7.9,7.1
		L289,419C288.8,423.1,292,426.6,296.1,426.9z"/>
</g>
</svg>
